<?xml version="1.0" encoding="UTF-8"?>
<svg xmlns="http://www.w3.org/2000/svg" viewBox="35.3 37.7 229.1 74.1">
  <path d="M171.6,86.8L158.1,86.8L157.4,75.8L153.5,76.3L153.2,86.8L139.6,86.6L139.6,54.8L142.3,48.0L147.0,43.9L152.5,41.9L160.5,42.0L166.2,44.6L169.9,48.5L172.1,55.8L171.6,86.8ZM210.5,86.8L196.8,86.4L196.8,57.2L195.2,55.4L193.6,55.6L192.4,58.0L192.5,86.4L178.2,86.4L178.5,53.6L181.0,48.0L185.7,43.9L192.4,41.7L198.5,41.9L205.0,44.4L208.6,48.2L211.0,55.1L210.5,86.8ZM48.0,87.2L39.3,85.7L43.9,72.4L47.9,73.1L50.8,71.4L50.6,58.2L53.4,51.6L58.3,46.3L64.1,43.0L69.2,41.9L77.6,42.7L74.0,55.6L69.5,55.6L67.2,58.0L67.9,69.3L65.0,76.9L57.5,84.1L48.0,87.2ZM120.2,87.3L113.5,86.3L108.2,81.8L104.5,85.3L98.3,87.3L92.0,86.5L87.0,83.0L84.1,75.1L84.4,42.4L98.7,42.6L98.7,72.0L99.9,73.1L101.0,72.2L101.3,42.4L115.4,42.6L115.4,72.2L116.3,73.1L117.8,72.0L117.8,42.6L132.0,42.4L131.5,78.6L127.7,84.5L120.2,87.3ZM244.7,87.0L243.1,86.4L234.2,67.4L234.1,86.6L219.1,86.8L219.3,42.4L234.1,42.6L234.2,58.9L244.4,42.4L260.2,42.4L247.7,62.6L259.8,86.8L244.7,87.0ZM157.9,63.1L157.7,56.7L154.7,55.6L153.5,57.8L153.6,63.1L157.9,63.1ZM78.1,101.9L77.7,98.3L79.0,98.2L78.1,101.9ZM113.5,107.8L112.3,107.0L109.2,107.8L107.3,105.4L108.7,101.2L112.4,101.5L112.5,98.2L113.6,98.3L113.5,107.8ZM45.2,107.8L41.3,107.7L41.4,98.3L42.7,98.4L42.7,106.5L47.4,106.7L47.4,107.6L45.2,107.8ZM218.8,107.8L217.7,107.6L217.6,103.4L213.8,103.4L213.7,107.6L212.3,107.7L212.4,98.3L213.7,98.4L213.8,102.2L217.6,102.2L217.7,98.4L219.1,98.4L218.8,107.8ZM70.2,107.8L67.6,107.2L67.2,102.1L66.0,102.0L68.3,98.8L68.7,101.0L70.6,101.1L68.6,102.1L68.6,106.2L70.3,106.6L70.2,107.8ZM183.8,107.8L181.2,107.0L181.0,102.3L179.8,102.0L182.0,98.8L182.4,101.0L184.2,101.1L182.2,102.3L182.2,106.0L184.2,106.9L183.8,107.8ZM58.0,107.8L55.1,107.5L53.7,105.5L53.9,102.6L55.8,100.9L58.9,101.4L59.9,103.2L59.9,104.6L54.9,104.8L56.5,106.8L59.0,106.1L59.4,107.2L58.0,107.8ZM90.0,107.8L86.2,107.0L90.4,106.2L86.5,103.7L87.4,101.0L91.2,101.5L87.5,102.5L91.6,105.0L90.0,107.8ZM124.6,107.8L122.4,107.8L120.3,106.0L120.2,103.2L121.9,101.0L124.3,100.9L126.2,102.8L126.3,104.6L121.3,104.8L122.8,106.8L125.5,106.1L125.9,107.2L124.6,107.8ZM137.0,107.8L134.8,107.8L132.7,105.9L132.7,102.8L134.4,101.0L138.4,102.0L135.3,101.9L133.9,103.5L134.9,106.6L138.4,106.2L137.0,107.8ZM149.0,107.8L145.9,107.3L144.7,105.5L145.0,102.5L147.1,100.9L150.0,101.4L151.3,103.2L151.1,106.0L149.0,107.8ZM159.0,107.8L157.9,107.6L157.9,101.1L159.3,101.9L161.7,100.9L161.8,101.9L159.4,103.2L159.0,107.8ZM172.8,107.8L167.8,107.0L168.6,104.1L172.1,103.3L171.3,101.9L168.1,102.4L168.3,101.4L171.6,100.9L173.1,101.8L172.8,107.8ZM195.3,107.8L192.6,107.6L191.0,106.0L190.8,103.0L193.0,100.9L195.0,100.9L196.9,102.6L197.0,104.6L192.0,104.7L193.5,106.8L196.2,106.1L196.6,107.2L195.3,107.8ZM230.0,107.8L227.5,107.6L225.8,106.0L225.7,103.2L227.5,101.0L230.3,101.0L232.1,103.0L231.9,106.2L230.0,107.8ZM247.7,107.8L246.6,107.6L245.9,101.9L243.9,103.2L243.9,107.6L242.6,107.6L242.4,102.3L240.5,102.2L239.9,107.6L238.8,107.8L238.5,101.1L247.2,101.2L247.7,107.8ZM258.7,107.8L256.2,107.6L254.4,105.9L254.3,103.3L256.0,101.0L258.9,101.0L260.3,102.6L260.4,104.6L255.6,104.7L257.0,106.8L259.8,106.2L258.7,107.8ZM195.7,103.7L194.0,101.7L192.0,103.5L195.7,103.7ZM58.6,103.7L57.5,101.9L55.0,103.2L58.6,103.7ZM111.0,106.7L112.4,103.5L110.1,101.9L108.7,105.0L111.0,106.7ZM125.1,103.7L124.0,101.9L121.5,103.2L125.1,103.7ZM148.7,106.7L149.9,103.3L147.3,101.9L146.0,105.4L148.7,106.7ZM229.6,106.7L230.9,103.5L228.3,101.9L227.0,105.5L229.6,106.7ZM259.2,103.7L258.2,101.9L255.6,103.2L259.2,103.7ZM170.2,106.9L172.1,105.7L172.0,104.4L169.0,105.2L170.2,106.9Z" fill="#3A2D28" fill-rule="evenodd"/>
</svg>